<svg id="Layer_1" data-name="Layer 1" xmlns="http://www.w3.org/2000/svg" width="24.04" height="173.21" viewBox="0 0 24.04 173.21"><defs><style>.cls-1{fill:none;stroke:#ff1d79;stroke-miterlimit:10;stroke-width:4px;}</style></defs><title>contact</title><line class="cls-1" x1="12.02" y1="129.28" x2="12.02" y2="168.28"/><polyline class="cls-1" points="22.63 159.78 12.02 170.38 1.41 159.78"/><path d="M19.44,10.31a4.75,4.75,0,0,0-2-4.07A9.19,9.19,0,0,0,12,4.8Q4.6,4.8,4.6,10.31a17.44,17.44,0,0,0,1.16,5.61H1.85a15.57,15.57,0,0,1-1.13-6q0-4.79,2.91-7.34T12,0a13.63,13.63,0,0,1,6,1.25,9,9,0,0,1,4,3.58,10.61,10.61,0,0,1,1.37,5.48,14.8,14.8,0,0,1-1.55,6.43L18,15.24a24.83,24.83,0,0,0,1-2.48A7.38,7.38,0,0,0,19.44,10.31Z"/><path d="M9.46,35.51A9,9,0,0,1,3,33.34a7.85,7.85,0,0,1-2.32-6A8.44,8.44,0,0,1,1.78,23a7.05,7.05,0,0,1,3-2.84,10.23,10.23,0,0,1,4.63-1,9,9,0,0,1,6.4,2.15,7.9,7.9,0,0,1,2.28,6,8.48,8.48,0,0,1-1.05,4.27,7,7,0,0,1-3,2.84A10.13,10.13,0,0,1,9.46,35.51Zm0-11.62a7.05,7.05,0,0,0-3.77.82,2.93,2.93,0,0,0-1.28,2.67A2.88,2.88,0,0,0,5.68,30a7.15,7.15,0,0,0,3.78.8A6.94,6.94,0,0,0,13.2,30a2.94,2.94,0,0,0,1.25-2.66,2.93,2.93,0,0,0-1.24-2.65A6.94,6.94,0,0,0,9.46,23.89Z"/><path d="M1,54.81V50.22h9.81a4.72,4.72,0,0,0,2.73-.65,2.35,2.35,0,0,0,.91-2.06,3.1,3.1,0,0,0-1.29-2.78,8,8,0,0,0-4.26-.86H1V39.29H17.83v3.5l-2.15.62v.26a4.85,4.85,0,0,1,1.84,2.11,7.19,7.19,0,0,1,.62,3.06,5.88,5.88,0,0,1-1.59,4.45A6.37,6.37,0,0,1,12,54.81Z"/><path d="M4.38,66.61a9.92,9.92,0,0,0,.53,2.89H1.49a10.3,10.3,0,0,1-.77-4.21,5.15,5.15,0,0,1,1.39-4A6,6,0,0,1,6.29,60h8.1V57.83h1.94l1.53,2.53,3.55,1.32v2.93H17.83v4.7H14.39v-4.7H6.29a1.79,1.79,0,0,0-1.44.55A2.17,2.17,0,0,0,4.38,66.61Z"/><path d="M1,83.56l2.28-.89v-.12a6.78,6.78,0,0,1-2-2.38A7.7,7.7,0,0,1,.72,77a5.17,5.17,0,0,1,1.38-3.81A5.31,5.31,0,0,1,6,71.78,4.43,4.43,0,0,1,10,73.65a10.83,10.83,0,0,1,1.41,5.64l.09,2.92h.74a2.29,2.29,0,0,0,2.56-2.62,11.93,11.93,0,0,0-1.22-4.73l3.1-1.52a13.67,13.67,0,0,1,1.52,6.43A8,8,0,0,1,16.7,85a5.44,5.44,0,0,1-4.48,1.8H1Zm7.79-1.35-.06-1.77a5.68,5.68,0,0,0-.72-3,2.26,2.26,0,0,0-2-1q-1.94,0-1.94,2.22A3.52,3.52,0,0,0,5,81.25a3.22,3.22,0,0,0,2.43,1Z"/><path d="M.72,98.31q0-7.85,8.61-7.85,4.28,0,6.55,2.13a8,8,0,0,1,2.26,6.12A11.66,11.66,0,0,1,17,103.94l-3.55-1.35q.44-1.08.71-2a6.51,6.51,0,0,0,.28-1.86q0-3.58-5.08-3.58T4.44,98.71a8.17,8.17,0,0,0,.35,2.45,8.81,8.81,0,0,0,1.11,2.25H2a7.41,7.41,0,0,1-1-2.25A12.61,12.61,0,0,1,.72,98.31Z"/><path d="M4.38,114.39a9.92,9.92,0,0,0,.53,2.89H1.49a10.3,10.3,0,0,1-.77-4.21,5.15,5.15,0,0,1,1.39-4,6,6,0,0,1,4.17-1.26h8.1v-2.19h1.94l1.53,2.53,3.55,1.32v2.93H17.83v4.7H14.39v-4.7H6.29a1.79,1.79,0,0,0-1.44.55A2.17,2.17,0,0,0,4.38,114.39Z"/></svg>