<svg id="Layer_1" data-name="Layer 1" xmlns="http://www.w3.org/2000/svg" width="139.12" height="24.67" viewBox="0 0 139.12 24.67"><defs><style>.cls-1{fill:none;stroke:#ff1d79;stroke-miterlimit:10;stroke-width:4px;}</style></defs><title>home_btn_1</title><line class="cls-1" x1="43.94" y1="12.65" x2="4.94" y2="12.65"/><polyline class="cls-1" points="13.44 23.25 2.83 12.65 13.44 2.04"/><path d="M73.47,20.93H69l0-9H60.74l0,9H56.32L56.28,0h4.44v8.2H69V0h4.42Z"/><path d="M92.94,12.87A8.6,8.6,0,0,1,90.89,19a7.47,7.47,0,0,1-5.74,2.22,8,8,0,0,1-4.07-1,6.71,6.71,0,0,1-2.71-2.9,9.74,9.74,0,0,1-1-4.41,8.55,8.55,0,0,1,2-6.1A7.52,7.52,0,0,1,85.21,4.6a8.07,8.07,0,0,1,4.07,1A6.69,6.69,0,0,1,92,8.47,9.65,9.65,0,0,1,92.94,12.87Zm-11.07,0a6.72,6.72,0,0,0,.79,3.59,2.79,2.79,0,0,0,2.54,1.21,2.74,2.74,0,0,0,2.51-1.22,6.81,6.81,0,0,0,.76-3.6,6.61,6.61,0,0,0-.78-3.56,3.29,3.29,0,0,0-5.05,0A6.61,6.61,0,0,0,81.88,12.88Z"/><path d="M110.9,20.87h-4.37l0-9.35a4.71,4.71,0,0,0-.58-2.6,2,2,0,0,0-1.83-.86,2.65,2.65,0,0,0-2.43,1.24,8.07,8.07,0,0,0-.75,4.05v7.53H96.56l0-16h3.34l.59,2h.24a4.43,4.43,0,0,1,1.86-1.73,6,6,0,0,1,2.79-.63q3.59,0,4.87,2.34h.39a4.33,4.33,0,0,1,1.89-1.74,6.33,6.33,0,0,1,2.83-.62,5.58,5.58,0,0,1,4.12,1.39,6.13,6.13,0,0,1,1.4,4.47l0,10.44h-4.38l0-9.35a4.72,4.72,0,0,0-.58-2.6A2,2,0,0,0,114.07,8a2.73,2.73,0,0,0-2.4,1.15,6.5,6.5,0,0,0-.79,3.64Z"/><path d="M132.6,21.12a8.26,8.26,0,0,1-6-2.12,8.07,8.07,0,0,1-2.19-6,8.88,8.88,0,0,1,2-6.22,7.16,7.16,0,0,1,5.56-2.21,7,7,0,0,1,5.29,1.92,7.31,7.31,0,0,1,1.9,5.34V13.9l-10.32,0a4.2,4.2,0,0,0,1.11,2.9,3.88,3.88,0,0,0,2.89,1,12,12,0,0,0,2.73-.31,13.56,13.56,0,0,0,2.69-1V20a10.27,10.27,0,0,1-2.45.86A15.45,15.45,0,0,1,132.6,21.12ZM132,7.63a2.77,2.77,0,0,0-2.17.89,4.08,4.08,0,0,0-.9,2.5H135a3.64,3.64,0,0,0-.85-2.5A2.86,2.86,0,0,0,132,7.63Z"/></svg>