<svg id="Layer_1" data-name="Layer 1" xmlns="http://www.w3.org/2000/svg" width="29.02" height="154.41" viewBox="0 0 29.02 154.41"><defs><style>.cls-1{fill:none;stroke:#ff1d79;stroke-miterlimit:10;stroke-width:4px;}</style></defs><title>top</title><path d="M7.31,66.85v-4.6H25.19v-5.9H29v16.4H25.19v-5.9Z"/><path d="M15.64,90.82A8.93,8.93,0,0,1,9.3,88.68a7.75,7.75,0,0,1-2.29-6,8.3,8.3,0,0,1,1.05-4.21,6.92,6.92,0,0,1,3-2.81,10.16,10.16,0,0,1,4.58-1A8.88,8.88,0,0,1,22,76.84a7.79,7.79,0,0,1,2.26,6,8.41,8.41,0,0,1-1,4.22,7,7,0,0,1-3,2.81A10.08,10.08,0,0,1,15.64,90.82Zm0-11.48a7,7,0,0,0-3.73.81,2.89,2.89,0,0,0-1.26,2.63,2.86,2.86,0,0,0,1.25,2.61,7.07,7.07,0,0,0,3.74.8,6.78,6.78,0,0,0,3.69-.81,3.4,3.4,0,0,0,0-5.24A6.87,6.87,0,0,0,15.64,79.34Z"/><path d="M7.31,111.19v-4.6H25.19v-5.9H29v16.4H25.19v-5.9Z"/><path d="M15.64,135.16A8.88,8.88,0,0,1,9.3,133a7.72,7.72,0,0,1-2.29-6,8.31,8.31,0,0,1,1.05-4.22,7,7,0,0,1,3-2.81,10.16,10.16,0,0,1,4.58-1A8.84,8.84,0,0,1,22,121.19a7.76,7.76,0,0,1,2.26,6,8.37,8.37,0,0,1-1,4.21,6.92,6.92,0,0,1-3,2.81A10.08,10.08,0,0,1,15.64,135.16Zm0-11.48a7,7,0,0,0-3.73.81,2.9,2.9,0,0,0-1.26,2.64,2.86,2.86,0,0,0,1.25,2.6,7.07,7.07,0,0,0,3.74.8,6.88,6.88,0,0,0,3.69-.8,3.41,3.41,0,0,0,0-5.25A6.87,6.87,0,0,0,15.64,123.68Z"/><path d="M7,148a5.52,5.52,0,0,1,2.12-4.59v-.24c-1.38.16-2.19.24-2.4.24H0V138.9H23.91v3.69l-2.15.63v.21a5.25,5.25,0,0,1,2.46,4.71,5.39,5.39,0,0,1-2.27,4.6,10.51,10.51,0,0,1-6.31,1.67,12.45,12.45,0,0,1-4.62-.78,6.52,6.52,0,0,1-3-2.22A5.71,5.71,0,0,1,7,148Zm13.59-1.34a2.88,2.88,0,0,0-1-2.45,5.93,5.93,0,0,0-3.4-.8h-.49a7,7,0,0,0-3.83.8,2.82,2.82,0,0,0-1.16,2.51q0,3,5,3a7.14,7.14,0,0,0,3.67-.75A2.57,2.57,0,0,0,20.6,146.68Z"/><line class="cls-1" x1="16.51" y1="43.94" x2="16.51" y2="4.94"/><polyline class="cls-1" points="5.9 13.44 16.51 2.83 27.11 13.44"/></svg>