<svg id="Layer_1" data-name="Layer 1" xmlns="http://www.w3.org/2000/svg" width="29.02" height="154.41" viewBox="0 0 29.02 154.41"><defs><style>.cls-1{fill:none;stroke:#ff1d79;stroke-miterlimit:10;stroke-width:4px;}</style></defs><title>top</title><path d="M7.31,66.85v-4.6H25.19v-5.9H29v16.4H25.19v-5.9Z"/><path d="M15.64,90.82A8.92,8.92,0,0,1,9.3,88.68a7.75,7.75,0,0,1-2.29-6,8.33,8.33,0,0,1,1-4.22,7,7,0,0,1,3-2.81,10.1,10.1,0,0,1,4.57-1A8.87,8.87,0,0,1,22,76.84a7.8,7.8,0,0,1,2.26,6,8.38,8.38,0,0,1-1,4.22,6.94,6.94,0,0,1-3,2.81A10,10,0,0,1,15.64,90.82Zm0-11.48a7,7,0,0,0-3.73.81,2.9,2.9,0,0,0-1.26,2.64,2.85,2.85,0,0,0,1.25,2.61,7.07,7.07,0,0,0,3.73.79,6.85,6.85,0,0,0,3.7-.8,3.41,3.41,0,0,0,0-5.24A6.86,6.86,0,0,0,15.64,79.34Z"/><path d="M7.31,111.19v-4.6H25.19v-5.9H29v16.4H25.19v-5.9Z"/><path d="M15.64,135.16A8.92,8.92,0,0,1,9.3,133a7.75,7.75,0,0,1-2.29-6,8.33,8.33,0,0,1,1-4.22,7,7,0,0,1,3-2.81,10.1,10.1,0,0,1,4.57-1A8.87,8.87,0,0,1,22,121.19a7.8,7.8,0,0,1,2.26,6,8.38,8.38,0,0,1-1,4.22,6.94,6.94,0,0,1-3,2.81A10,10,0,0,1,15.64,135.16Zm0-11.48a7,7,0,0,0-3.73.81,2.9,2.9,0,0,0-1.26,2.64,2.85,2.85,0,0,0,1.25,2.61,7.07,7.07,0,0,0,3.73.79,6.85,6.85,0,0,0,3.7-.8,3.41,3.41,0,0,0,0-5.24A6.86,6.86,0,0,0,15.64,123.68Z"/><path d="M7,148a5.51,5.51,0,0,1,2.12-4.59v-.24q-2.08.24-2.41.24H0V138.9H23.91v3.68l-2.15.64v.21a5.24,5.24,0,0,1,2.47,4.71,5.39,5.39,0,0,1-2.27,4.6,10.51,10.51,0,0,1-6.31,1.66,12.47,12.47,0,0,1-4.62-.78,6.49,6.49,0,0,1-3-2.22A5.69,5.69,0,0,1,7,148Zm13.59-1.34a2.86,2.86,0,0,0-1-2.45,5.93,5.93,0,0,0-3.41-.8h-.49a7,7,0,0,0-3.83.79,2.83,2.83,0,0,0-1.16,2.52q0,3,5,3a7.18,7.18,0,0,0,3.68-.75A2.56,2.56,0,0,0,20.6,146.68Z"/><line class="cls-1" x1="16.51" y1="43.94" x2="16.51" y2="4.94"/><polyline class="cls-1" points="5.9 13.44 16.51 2.83 27.11 13.44"/></svg>